<svg width="400" height="400" viewBox="0 0 400 400" fill="none" xmlns="http://www.w3.org/2000/svg">
<rect width="400" height="400" rx="200" fill="#5294FF"/>
<path fill-rule="evenodd" clip-rule="evenodd" d="M147.245 143.558H253.74C259.796 143.558 263.294 150.429 259.734 155.328L209.051 225.026C205.488 229.924 208.988 236.795 215.043 236.795H259.709C262.079 236.795 264.306 235.66 265.701 233.741L315.825 164.812C317.714 162.212 317.714 158.694 315.825 156.094L271.88 95.665C270.486 93.7457 268.258 92.6108 265.888 92.6108H135.097C132.725 92.6108 130.5 93.7457 129.105 95.665L85.1606 156.094C83.2717 158.694 83.2717 162.214 85.1606 164.812L194.498 315.175C197.456 319.244 203.527 319.244 206.485 315.175L228.816 284.466C230.706 281.866 230.706 278.346 228.816 275.746L141.253 155.328C137.692 150.429 141.19 143.558 147.245 143.558Z" fill="white"/>
</svg>