<svg width="21px" height="21px" viewBox="0 0 21 21" version="1.1" xmlns="http://www.w3.org/2000/svg" xmlns:xlink="http://www.w3.org/1999/xlink">
    <title>att</title>
    <defs>
        <linearGradient x1="62.077619%" y1="-129.210667%" x2="-30.5671429%" y2="-124.291429%" id="orangeGradient">
            <stop stop-color="#EB7A4A" offset="0%"></stop>
            <stop stop-color="#F643CF" offset="100%"></stop>
        </linearGradient>
    </defs>
    <g id="Page-1" stroke="none" stroke-width="1" fill="none" fill-rule="evenodd">
        <g id="att" fill="url(#orangeGradient)">
            <path d="M10.5,21 C16.299,21 21,16.299 21,10.5 C21,4.701 16.299,0 10.5,0 C4.701,0 0,4.701 0,10.5 C0,16.299 4.701,21 10.5,21 Z M10,7 C10,6.5858 10.3358,6.25 10.75,6.25 C11.1642,6.25 11.5,6.5858 11.5,7 L11.5,11.75 C11.5,12.1642 11.1642,12.5 10.75,12.5 C10.3358,12.5 10,12.1642 10,11.75 L10,7 Z M10,14 C10,13.5858 10.3358,13.25 10.75,13.25 C11.1642,13.25 11.5,13.5858 11.5,14 C11.5,14.4142 11.1642,14.75 10.75,14.75 C10.3358,14.75 10,14.4142 10,14 Z" id="Shape"></path>
        </g>
    </g>
</svg>
