<svg width="16" height="17" viewBox="0 0 16 17" fill="none" xmlns="http://www.w3.org/2000/svg">
<path d="M9.46585 8.01168L15.6959 1.7814C16.1014 1.37615 16.1014 0.720912 15.6959 0.315659C15.2907 -0.0895946 14.6354 -0.0895946 14.2302 0.315659L7.99991 6.54593L1.76983 0.315659C1.36438 -0.0895946 0.709336 -0.0895946 0.304082 0.315659C-0.101361 0.720912 -0.101361 1.37615 0.304082 1.7814L6.53416 8.01168L0.304082 14.2419C-0.101361 14.6472 -0.101361 15.3024 0.304082 15.7077C0.506045 15.9098 0.771595 16.0114 1.03695 16.0114C1.30232 16.0114 1.56768 15.9098 1.76983 15.7077L7.99991 9.47742L14.2302 15.7077C14.4323 15.9098 14.6977 16.0114 14.9631 16.0114C15.2284 16.0114 15.4938 15.9098 15.6959 15.7077C16.1014 15.3024 16.1014 14.6472 15.6959 14.2419L9.46585 8.01168Z" fill="#646464"/>
</svg>
